<?xml version="1.0" standalone="no"?>
<!DOCTYPE svg PUBLIC "-//W3C//DTD SVG 20010904//EN"
 "http://www.w3.org/TR/2001/REC-SVG-20010904/DTD/svg10.dtd">
<svg version="1.0" xmlns="http://www.w3.org/2000/svg"
 width="320.000000pt" height="320.000000pt" viewBox="0 0 320.000000 320.000000"
 preserveAspectRatio="xMidYMid meet">
<metadata>
Created by potrace 1.11, written by Peter Selinger 2001-2013
</metadata>
<g transform="translate(0.000000,320.000000) scale(0.100000,-0.100000)"
fill="#000000" stroke="none">
<path d="M690 3170 c-176 -30 -318 -144 -407 -327 -37 -78 -43 -97 -35 -120 5
-16 15 -27 24 -25 8 1 42 30 76 63 42 42 66 59 77 55 9 -3 13 -2 10 4 -8 13
65 12 125 -1 25 -5 52 -11 60 -13 8 -1 24 -6 35 -10 49 -19 104 -34 150 -42
11 -1 30 -5 42 -8 21 -4 193 -10 203 -6 9 3 38 8 81 14 23 3 48 11 55 17 7 6
19 9 26 7 7 -3 19 1 26 8 17 18 42 7 35 -14 -4 -9 -9 -19 -13 -22 -14 -11
-117 -167 -133 -200 -26 -58 -56 -138 -63 -167 -28 -124 -33 -178 -29 -303 7
-188 7 -193 -13 -205 -9 -5 -65 -11 -125 -12 -147 -2 -232 -31 -293 -100 -20
-23 -49 -91 -42 -98 1 -2 26 -4 53 -6 28 -2 53 -8 57 -13 5 -7 8 -7 8 2 0 6 7
12 16 12 9 0 12 -5 8 -12 -5 -9 -4 -10 5 -3 12 12 81 8 81 -5 0 -4 13 -7 28
-8 34 -1 138 -57 134 -72 -1 -6 1 -9 6 -6 12 7 64 -45 81 -81 7 -15 17 -35 22
-45 11 -21 15 -91 6 -105 -5 -8 -42 -11 -110 -9 -119 3 -184 -15 -231 -66
l-29 -32 23 -18 c12 -10 30 -18 41 -18 10 0 21 -5 24 -10 4 -6 10 -8 15 -5 5
3 17 1 27 -4 10 -5 48 -23 85 -39 184 -83 234 -238 147 -462 -16 -43 -39 -90
-49 -103 -11 -14 -20 -28 -20 -32 0 -12 -91 -125 -101 -125 -6 0 -8 -4 -5 -8
9 -14 -180 -187 -307 -281 -56 -41 -58 -43 -41 -62 23 -26 43 -24 90 9 57 41
134 84 134 75 0 -4 4 -3 8 3 12 18 72 45 84 38 6 -4 8 -3 4 4 -6 10 80 50 96
44 5 -1 8 2 8 8 0 5 9 10 21 10 11 0 17 -4 14 -10 -10 -16 1 -11 16 7 12 15
12 16 -1 8 -10 -5 -12 -5 -5 2 13 14 96 33 108 26 6 -4 7 -1 2 7 -6 10 -3 12
13 8 13 -4 20 -2 16 4 -3 5 0 8 7 7 8 -1 22 1 32 6 9 4 26 5 37 2 11 -3 18 -1
15 3 -7 11 71 24 86 14 8 -5 9 -3 4 6 -6 10 -1 12 19 8 14 -3 26 -2 26 3 0 4
11 6 24 5 14 -2 30 0 37 5 7 4 22 3 32 -3 13 -7 17 -7 13 0 -4 6 10 10 37 9
23 0 48 2 54 6 5 3 13 4 17 0 3 -3 27 -5 54 -4 63 2 57 2 137 -4 39 -4 76 -7
83 -7 6 -1 12 -4 12 -7 0 -3 12 -7 26 -8 46 -2 143 -27 138 -34 -2 -4 1 -11 7
-15 8 -4 9 -3 5 4 -10 16 11 14 62 -7 23 -9 39 -21 35 -26 -4 -4 -2 -5 5 -1
15 9 142 -49 142 -65 0 -5 4 -7 10 -4 13 8 82 -39 72 -50 -4 -5 -2 -5 4 -2 13
7 56 -21 49 -33 -3 -4 3 -7 12 -6 9 0 23 -10 30 -24 7 -14 13 -19 13 -12 0 10
4 9 16 -3 11 -11 20 -13 28 -5 7 5 16 6 20 2 4 -4 6 0 4 8 -2 8 2 14 9 13 7
-2 10 3 7 11 -7 18 27 30 38 14 6 -8 7 -5 3 10 -5 19 2 32 36 65 24 23 46 41
51 40 4 -2 7 1 5 5 -4 14 91 104 102 97 7 -4 8 0 4 11 -5 14 -3 16 11 11 10
-4 15 -3 11 4 -8 13 14 41 26 33 5 -3 8 -1 7 4 -3 10 79 92 86 85 2 -2 9 10
14 27 6 17 7 28 3 25 -5 -2 -11 4 -14 15 -9 35 -49 24 -97 -25 l-44 -44 -30
18 c-17 10 -59 33 -93 51 -34 19 -59 38 -56 43 3 6 1 7 -5 3 -5 -3 -54 14
-106 38 -53 25 -100 45 -104 46 -4 0 -29 8 -57 17 -61 21 -52 18 -102 28 -24
4 -43 10 -43 14 0 6 -14 7 -155 11 -100 3 -169 -4 -253 -26 -63 -16 -191 -62
-207 -75 -14 -11 -66 -20 -77 -13 -4 3 -3 14 2 25 6 11 16 16 22 13 6 -4 8 -3
4 4 -3 6 4 18 16 26 12 9 19 16 15 16 -4 0 5 12 20 27 15 16 31 27 36 25 5 -1
6 2 3 6 -7 12 28 44 38 35 4 -5 6 -1 4 7 -2 8 3 14 10 12 8 -1 11 1 8 6 -3 5
16 32 42 60 26 28 61 68 77 88 17 20 38 45 48 55 9 11 17 23 17 27 0 5 8 17
18 28 24 26 77 105 85 127 4 11 12 15 18 11 8 -5 9 -3 4 5 -8 14 23 91 37 91
5 0 6 4 3 10 -7 11 25 121 34 116 3 -2 7 19 8 47 1 28 5 58 9 66 4 9 8 34 10
56 2 22 6 65 9 95 3 30 6 60 6 65 2 24 -11 313 -15 337 -2 14 -7 36 -11 48 -6
17 -4 21 6 14 11 -6 12 -5 3 7 -7 8 -14 34 -17 59 -3 25 -9 54 -12 65 -6 16
-5 17 4 5 6 -8 11 -10 11 -4 0 5 -5 15 -11 21 -6 6 -12 40 -13 76 -2 36 -6 69
-8 73 -3 5 -6 40 -6 78 -1 38 -4 71 -7 74 -2 3 1 12 8 20 10 13 9 14 -2 7 -9
-5 -12 -4 -8 2 3 5 7 37 9 71 2 34 5 62 8 62 3 0 6 15 7 32 2 18 7 34 12 36 5
2 7 12 4 22 -3 12 0 20 6 20 7 0 9 5 6 10 -3 6 -1 10 4 10 6 0 11 8 11 18 0
10 20 39 44 65 57 58 139 96 221 102 17 1 46 6 65 10 19 5 38 8 41 7 10 -2 -2
48 -13 54 -17 11 -164 3 -238 -11 -14 -3 -34 -7 -46 -9 -129 -25 -312 -118
-375 -191 -19 -22 -37 -42 -40 -45 -17 -14 -69 -145 -85 -215 -26 -112 -26
-476 1 -629 3 -17 7 -53 10 -81 2 -27 7 -90 12 -140 9 -111 9 -369 0 -450 -25
-216 -90 -399 -202 -570 -31 -46 -66 -91 -78 -100 -12 -8 -17 -15 -12 -15 5 0
-33 -40 -84 -90 -52 -49 -98 -90 -103 -90 -31 0 -32 21 -2 55 13 15 26 36 29
46 4 11 10 19 14 19 4 0 20 25 36 55 15 30 32 55 36 55 5 0 6 7 3 15 -4 8 -2
15 4 15 6 0 13 14 17 30 4 17 10 28 15 25 4 -3 7 3 6 13 0 10 5 16 13 14 11
-2 12 0 3 11 -6 7 -8 18 -4 23 5 5 15 29 22 54 7 25 16 50 19 55 3 6 6 16 7
23 2 8 6 21 10 30 4 9 6 25 5 36 -2 10 2 16 7 12 5 -3 9 7 9 22 0 15 3 50 8
77 4 28 8 60 9 73 0 12 2 22 6 22 3 0 5 26 4 58 -1 31 3 63 9 70 5 6 6 12 1
12 -12 0 -11 93 1 102 7 5 7 8 0 8 -6 0 -10 33 -11 78 -1 71 -4 115 -20 287
-3 33 -8 62 -10 64 -2 2 2 11 9 19 7 9 7 13 1 9 -8 -4 -14 20 -19 76 -11 127
-11 131 0 146 7 11 7 13 -2 7 -13 -7 -14 -5 -17 161 0 40 -5 73 -9 73 -4 0 -4
8 1 18 5 9 8 25 7 35 -2 9 0 17 3 17 4 0 7 10 8 23 1 36 12 78 23 91 6 7 8 15
5 18 -7 7 26 89 35 84 3 -2 7 7 8 21 0 14 7 29 15 34 7 5 10 9 6 9 -10 0 28
58 99 152 38 51 63 76 73 72 8 -3 11 -2 7 2 -10 11 13 35 27 27 6 -3 8 -3 4 2
-4 4 6 24 23 43 22 25 27 37 18 42 -14 9 -36 1 -132 -52 -65 -35 -160 -73
-209 -84 -41 -8 -174 -5 -202 5 -14 6 -26 8 -26 6 0 -4 -22 3 -95 31 -11 4
-22 8 -25 9 -5 2 -18 7 -100 42 -93 40 -229 58 -320 43z"/>
<path d="M1090 2719 c0 -5 5 -7 10 -4 6 3 10 8 10 11 0 2 -4 4 -10 4 -5 0 -10
-5 -10 -11z"/>
</g>
</svg>
